<?xml version="1.0" encoding="utf-8"?>
<svg version="1.2" baseProfile="tiny-ps" id="Layer_1" xmlns="http://www.w3.org/2000/svg" xmlns:xlink="http://www.w3.org/1999/xlink"
	 viewBox="0 0 800 800" xml:space="preserve">
<title>valentij</title>
<path id="path4157" fill="none" stroke="#000000" stroke-width="10" d="M404.81,766.5c0,1.71,19.25,0.23,26.46-2.04
	c22.22-6.99,53.31-27.23,86.38-56.23c29.21-25.62,88.93-90.57,103.21-112.23c5.83-8.84,16.03-30.34,20.08-42.32
	c13.01-38.43,20.83-82.78,25.37-143.9c2.02-27.23,2.31-104.55,0.49-130.91c-6.02-87.25-17.99-144.69-35.03-168.07
	c-11.96-16.4-68.88-31.04-151.29-38.89c-48.53-4.63-76.76-5.99-98.47-4.75c-112.72,6.44-188.5,21.05-210.14,40.51
	c-30.78,27.67-48.85,196.45-35.33,329.96c6.13,60.52,17.24,107.85,32.85,139.92c7.5,15.41,12.29,22.46,27.63,40.73
	c69.07,82.25,132.9,135.68,175.76,147.1c5.98,1.59,21.82,2.55,21.82,1.32L404.81,766.5z"/>
<path id="path4155" d="M391.01,760.9c-11.99-17.68-17.55-37.81-18.42-66.7c-0.59-19.84,0.32-30.24,4.06-46.14
	c1.67-7.12,2.26-11.8,1.99-15.97c-0.34-5.38-0.72-6.29-4.32-10.35c-5.93-6.71-11.41-15.3-11.1-17.42c0.32-2.26,1.18-2.28,22.27-0.54
	c11.96,0.99,17.03,0.99,28.32-0.01c20.37-1.8,21.11-1.77,21.48,0.84c0.35,2.45-4.44,10.2-10.1,16.33c-1.97,2.14-4.02,5.04-4.56,6.45
	c-1.49,3.93-1.16,10.6,0.88,17.73c4.25,14.87,6.29,39.4,4.72,56.97c-2.12,23.89-8.38,44.09-18.17,58.64
	C402.96,761.64,399.79,765.48,391.01,760.9L391.01,760.9z"/>
<path id="path4153" d="M276.65,639.33c-38.52-40.02-68.36-81.27-90.03-124.48c-13.01-25.94-24.25-56.16-27.29-73.39l-0.55-3.13
	l4.51,4.38c8.25,8,18.56,13.54,30.56,16.41c11.24,2.69,29.85,2.05,43.38-1.5c16.2-4.25,34.28-12.25,50.88-22.52l8.37-5.18l2.62,2.93
	c3.51,3.93,4.18,7.05,2.34,10.91c-4.01,8.41-53.64,25.46-74.12,25.46c-2.6,0-4.48,0.42-4.48,1.01c0,0.55,4.07,8.4,9.05,17.43
	c4.98,9.04,10.3,18.92,11.83,21.97c1.53,3.05,4.87,7.7,7.43,10.32l4.65,4.78l27.41,0.67c31.11,0.76,34.15,0.37,45.78-5.84
	c7.44-3.97,20-15.79,26.95-25.36l4.44-6.12l3.41,1.68c13.06,6.42,57.84,6.41,70.91-0.01l3.44-1.69l5.63,7.26
	c12.94,16.7,24.9,25.83,38.31,29.27c4.95,1.27,9.63,1.38,33.35,0.8l27.59-0.68l4.61-4.63c2.54-2.55,5.99-7.41,7.68-10.8
	c1.69-3.39,7.16-13.6,12.16-22.68c5-9.09,9.09-16.65,9.09-16.81c0-0.16-3.66-0.53-8.12-0.82c-10.22-0.68-22.61-3.42-36.9-8.18
	c-12.9-4.29-30.75-12.64-33.38-15.61c-2.95-3.33-2.38-7.94,1.45-11.78l3.26-3.26l8.3,5.24c17.86,11.27,41.95,21.05,59.25,24.06
	c9.62,1.67,23.9,1.86,31.74,0.42c12.13-2.23,25.1-8.94,34.52-17.85c1.66-1.57,3.02-2.38,3.02-1.81c0,2.99-6.04,23.81-10.07,34.7
	C608.48,532,571.46,588.73,523.38,637.65l-14.65,14.91l16.59-25.07c25.53-38.56,41.98-65.74,40.62-67.09
	c-0.25-0.25-2.62,1.49-5.27,3.87c-10.53,9.47-29.8,20.49-43.79,25.06c-7.4,2.41-22.02,5.53-22.71,4.83
	c-0.21-0.21,2.05-1.07,5.02-1.9c25.84-7.22,53.86-25.43,72.33-47.01c5.86-6.86,7.97-10.67,24.18-43.87
	c9.77-20,17.64-36.5,17.5-36.66c-0.65-0.74-7.73,3.66-8.99,5.58c-0.77,1.18-7.57,13.42-15.11,27.21
	c-18.15,33.19-20.56,37.26-24.81,41.87c-5.02,5.44-12.36,10.3-19.89,13.14l-6.39,2.42l-47.94,0.19l-47.94,0.19l-11.48-13.45
	c-6.31-7.4-14.07-17.06-17.23-21.48c-6.43-8.98-8.2-9.86-17.62-8.83c-4.58,0.5-4.96,0.76-8.11,5.5c-4.05,6.1-17.31,22.68-25.3,31.62
	l-5.91,6.62l-47.57-0.22c-42.26-0.19-48.14-0.4-52.67-1.83c-9.86-3.12-18.61-9.42-25.27-18.18c-1.37-1.8-9.12-15.38-17.23-30.17
	c-21.03-38.36-20.03-36.75-23.98-38.67c-1.91-0.93-3.65-1.5-3.88-1.27c-0.23,0.23,7.66,16.97,17.54,37.21l17.95,36.8l9.21,9.72
	c15.37,16.22,29.5,26.72,47.34,35.18c5.7,2.7,13.49,5.82,17.32,6.94c9.68,2.81,9.61,2.78,9.07,3.32c-0.8,0.8-17.41-2.99-24.85-5.68
	c-13.67-4.93-28.94-13.76-40.62-23.5c-3.19-2.66-5.8-4.34-5.8-3.72c0,3.11,16.72,30.5,39.89,65.33c17.53,26.35,17,25.53,16.42,25.53
	C289.13,652.1,283.41,646.35,276.65,639.33L276.65,639.33z"/>
<path id="path4151" d="M399.28,561.11c-49.17,0-62.5,0.03-66.54,0.78c-0.85,0.1-1.36,0.21-1.49,0.33c-0.77,0.77-1.14,1.45-1.06,2.08
	c-0.07,0.51,0.16,0.9,0.69,1.35c0.65,0.54,2.47,1.18,4.98,1.82c0.05,0.01,0.09,0.03,0.13,0.04c0,0,0,0,0,0
	c1.97,0.53,4.49,1.07,7.61,1.66c0.28,0,0.56,0.01,0.84,0.01c2.69,0.43,5.54,0.82,8.38,1.1c15.48,1.25,31.07,1.2,46.68,0.74
	c15.61,0.46,31.2,0.51,46.68-0.74c2.84-0.28,5.69-0.67,8.38-1.1c0.28,0,0.56-0.01,0.84-0.01c3.12-0.59,5.63-1.13,7.61-1.66
	c0.05-0.01,0.09-0.03,0.14-0.04c2.51-0.64,4.32-1.27,4.98-1.82c0.53-0.44,0.76-0.83,0.69-1.35c0.08-0.63-0.29-1.3-1.06-2.08
	c-0.12-0.12-0.63-0.23-1.49-0.33c-4.05-0.75-17.37-0.78-66.54-0.78C399.55,561.11,399.45,561.11,399.28,561.11z"/>
<path id="path4149" stroke="#000000" d="M383.12,485.46c-14.07-2.93-23.61-9.83-28.73-20.76c-3.29-7.03-3.37-8.55-2.05-40.3
	c0.4-9.57,0.4-17.41,0.01-17.41c-0.39,0-4.05,2.4-8.13,5.34c-8.97,6.46-21.57,19.49-25.04,25.91c-5.33,9.86-6.46,20.57-3.03,28.79
	c1.97,4.72,0.32,3.69-3-1.87c-4.58-7.66-5.48-12.19-4.18-21.11c0.65-4.44,1.94-8.91,3.15-10.92c3.03-5.02,13.62-18.88,22.09-28.93
	c13.48-15.99,20.55-34.06,26.03-66.58c0.96-5.72,2.24-16.38,2.82-23.67c1.66-20.56,2.05-21.57,3.92-10
	c4.94,30.67,4.18,76.58-2.1,126.53c-2.43,19.33-2.37,24.07,0.35,29.92c3.95,8.49,12.3,13.47,25.83,15.41
	c18.29,2.62,36.54-3.52,42.13-14.19c3.21-6.13,3.34-10.41,0.93-29.9c-6.04-48.67-7.13-95.63-2.89-124.05
	c0.79-5.3,1.44-10.2,1.44-10.87s0.33-1.23,0.73-1.23c0.4,0,1.25,6.51,1.88,14.47c2.42,30.39,9.05,59.87,17.11,76.05
	c3.29,6.61,7.6,12.82,14.16,20.43c8.14,9.43,18.17,22.93,20.59,27.7c3.13,6.17,4.05,18.86,1.77,24.3
	c-1.93,4.61-6.15,11.87-6.61,11.4c-0.19-0.19,0.26-2.38,1.01-4.86c4.98-16.53-4.31-34.3-26.77-51.22
	c-9.19-6.92-9.38-7.01-10.21-4.86c-0.93,2.4-0.12,27.17,1.14,34.68c1.66,9.87-2.01,22.59-8.63,29.91
	c-3.76,4.16-11.54,8.6-19.16,10.93C412.56,486.68,391.59,487.23,383.12,485.46L383.12,485.46z"/>
<path id="path4147" stroke="#000000" d="M339.28,479.06c-2.59-1.21-5.62-3.35-6.73-4.76c-3.84-4.89-2.13-7.88,4.52-7.88
	c5.41,0,11.75,3.22,14.58,7.4c2.48,3.67,2.53,4.1,0.63,5.99C350.19,481.91,344.73,481.59,339.28,479.06L339.28,479.06z"/>
<path id="path4145" stroke="#000000" d="M446.77,480.15c-4.43-4.43,5.67-13.74,14.91-13.74c7.06,0,8.47,4.37,2.97,9.19
	C458.89,480.67,449.64,483.02,446.77,480.15z"/>
<path id="path4141" stroke="#000000" d="M290.15,338.32c11.08-2.29,32.78-10.47,34.3-12.94c0.25-0.4-3.4,0.2-8.11,1.33
	c-15.36,3.71-29.8,5.38-46.62,5.39c-17.63,0.01-26.99-1.31-41.4-5.83c-13.98-4.39-17.25-9.14-10.6-15.41
	c7.78-7.33,28.61-15.9,44.04-18.12c10.06-1.44,25.28-0.61,34.75,1.91c4.01,1.07,11.11,3.82,15.78,6.13
	c9.76,4.81,7.44,2.46-3.57-3.62c-16.32-9.02-29.73-12.89-45.03-12.99c-9.59-0.07-11.48,0.21-18.61,2.71
	c-4.36,1.53-10.31,4.36-13.21,6.29c-8.72,5.79-21.42,20.68-24.38,28.59c-1.11,2.97,16.28,11.29,31.85,15.24
	C256.56,341.36,273.29,341.79,290.15,338.32L290.15,338.32z M143.15,358.68c1.27-3.64,9.57-10.92,21.14-18.53
	c13.96-9.19,13.24-8.5,8.28-7.96c-5.07,0.55-12.96,3.87-18.87,7.94c-2.31,1.59-4.2,2.5-4.2,2.01c0-1.52,10.34-10.41,15.49-13.31
	c2.71-1.53,4.93-2.95,4.93-3.16s-1.88-2.93-4.18-6.05c-5.13-6.96-10.41-17.66-11.18-22.65c-0.54-3.46-0.26-3.18,3.97,4.08
	c2.5,4.29,6.71,10.21,9.36,13.16c10.59,11.8,16.34,9.73,40.79-14.69c22.82-22.8,33.82-26.86,61.1-22.57
	c49.07,7.72,68.62,18.09,72.4,38.4c3.06,16.44-25.96,31.74-66.37,35c-25.18,2.03-49.98-2.1-69.92-11.66
	c-5.6-2.68-7.68-3.19-13.05-3.19c-8.45,0-16.23,2.1-24.96,6.73c-6.86,3.64-23.02,16.54-23.02,18.38c0,0.49-0.6,0.88-1.34,0.88
	C142.41,361.5,142.35,360.98,143.15,358.68L143.15,358.68z"/>
<path id="path4137" d="M552.4,338.6c10.23-2.05,20.89-5.61,29.14-9.71c11.92-5.93,11.43-4.98,6.66-12.72
	c-5.58-9.06-11-15.29-17.66-20.33c-20.79-15.74-45.64-15.95-76.29-0.64c-6.72,3.35-12.91,6.87-13.76,7.8
	c-0.94,1.04,1.11,0.31,5.27-1.86c21.64-11.34,49.3-12.18,73.92-2.26c13.96,5.63,23.24,11.97,24.74,16.91
	c2.08,6.84-20.34,14.64-47.31,16.45c-14.36,0.97-39.62-1.7-56.4-5.96c-3.45-0.87-6.27-1.33-6.27-1.02c0,0.78,9.25,5.25,16.59,8.01
	C510.65,340.67,532.62,342.57,552.4,338.6L552.4,338.6z M648.66,355.36c-13.1-12.53-25.99-18.83-40.17-19.62l-8.46-0.47l-9.44,4.33
	c-17.4,7.97-33.63,11.12-56.73,11c-30.87-0.16-59.16-8.36-71.66-20.77c-6.27-6.23-7.21-14.44-2.65-23.28
	c7.36-14.28,25.77-22.35,66.42-29.09c30.89-5.13,39.03-2.19,65.91,23.77c15.62,15.08,22.83,20.36,27.81,20.35
	c5.54-0.01,14.18-8.88,20.84-21.37c2.17-4.07,4.12-7.41,4.32-7.41c0.68,0-0.75,5.96-2.56,10.68c-2.11,5.49-9.1,16.99-11.82,19.45
	c-1.05,0.95-1.91,2.05-1.91,2.45s1.98,1.69,4.39,2.87c2.42,1.18,7.33,5.02,10.91,8.52c4.68,4.58,5.6,5.81,3.27,4.37
	c-10.03-6.16-19.17-9.79-23.18-9.21c-1.84,0.27-1.06,1,4.68,4.41c13.99,8.3,27.78,20.09,27.78,23.74
	C656.41,362.4,655.33,361.75,648.66,355.36L648.66,355.36z"/>
<path id="path4138" d="M346.28,298.17c-8.46-11.51-28.69-32.61-40.19-41.91c-33.51-27.11-69.79-39.49-105.3-35.94
	c-8.6,0.86-22.17,3.74-33.37,7.08c-2.01,0.6-2,0.5,0.76-6.68c9.27-24.11,24.02-41.58,43.06-51.01c10.14-5.02,18.32-6.84,30.79-6.87
	c17.08-0.03,33.22,4.41,53.64,14.75c10.97,5.56,33.52,19.39,32.79,20.12c-0.16,0.16-4.8-1.13-10.31-2.88
	c-12.49-3.96-30.02-8.33-40.98-10.2c-9.06-1.55-28.19-2.94-27.32-1.99c0.29,0.32,4.15,1.22,8.56,1.99
	c30.65,5.35,63.43,23.7,88.68,49.66c6.08,6.25,6.73,7.27,6.26,9.77c-0.29,1.53-1.31,3.83-2.26,5.11c-1.47,1.99-2.44,2.32-6.72,2.28
	c-2.75-0.02-6.13-0.38-7.52-0.79l-2.52-0.75l3.72,8.68c6.97,16.28,16.84,47.32,15.48,48.68
	C353.34,307.45,350.08,303.35,346.28,298.17z"/>
<path id="path4159" d="M452.61,298.17c8.46-11.51,28.69-32.61,40.19-41.91c33.51-27.11,69.79-39.49,105.3-35.94
	c8.6,0.86,22.17,3.74,33.37,7.08c2.01,0.6,2,0.5-0.76-6.68c-9.27-24.11-24.02-41.58-43.06-51.01c-10.14-5.02-18.32-6.84-30.79-6.87
	c-17.08-0.03-33.22,4.41-53.64,14.75c-10.97,5.56-33.52,19.39-32.79,20.12c0.16,0.16,4.8-1.13,10.31-2.88
	c12.49-3.96,30.02-8.33,40.98-10.2c9.06-1.55,28.19-2.94,27.32-1.99c-0.29,0.32-4.15,1.22-8.56,1.99
	c-30.65,5.35-63.43,23.7-88.68,49.66c-6.08,6.25-6.73,7.27-6.26,9.77c0.29,1.53,1.31,3.83,2.26,5.11c1.47,1.99,2.44,2.32,6.72,2.28
	c2.75-0.02,6.13-0.38,7.52-0.79l2.52-0.75l-3.72,8.68c-6.97,16.28-16.84,47.32-15.48,48.68
	C445.55,307.45,448.81,303.35,452.61,298.17L452.61,298.17z"/>
</svg>
